<svg width="14" height="11" viewBox="0 0 14 11" fill="none" xmlns="http://www.w3.org/2000/svg">
<path opacity="0.8" d="M4.40286 11C9.68612 11 12.5754 6.76841 12.5754 3.09892C12.5754 2.97874 12.5728 2.85912 12.5672 2.73999C13.1294 2.34672 13.6146 1.85978 14 1.30202C13.4853 1.52322 12.9315 1.67211 12.3505 1.73924C12.9435 1.39546 13.3988 0.851592 13.6136 0.203308C13.0498 0.526678 12.4329 0.754638 11.7897 0.87736C11.2655 0.33759 10.5193 0 9.69304 0C8.10682 0 6.82053 1.2436 6.82053 2.77654C6.82053 2.99447 6.84577 3.20639 6.89506 3.40972C4.5078 3.29359 2.39096 2.18859 0.974252 0.508365C0.71909 0.93215 0.58488 1.41379 0.585325 1.9041C0.585325 2.86753 1.0924 3.71803 1.86354 4.21561C1.4074 4.20214 0.961275 4.08303 0.562675 3.86829C0.562248 3.87995 0.562248 3.8913 0.562248 3.90376C0.562248 5.2486 1.55232 6.37145 2.86661 6.62588C2.61977 6.69087 2.36506 6.72373 2.10922 6.72359C1.92446 6.72359 1.74439 6.70601 1.56939 6.67353C1.93507 7.77689 2.99543 8.57981 4.25261 8.60225C3.26951 9.34719 2.03111 9.79091 0.685146 9.79091C0.456181 9.7911 0.227402 9.77825 0 9.75243C1.27121 10.5402 2.78065 10.9998 4.403 10.9998" fill="white"/>
</svg>
